<svg xmlns="http://www.w3.org/2000/svg" viewBox="0 0 510.05 521.37"><defs><style>.cls-1{fill:#fff;}</style></defs><title>logo vg w</title><g id="Layer_2" data-name="Layer 2"><g id="Layer_1-2" data-name="Layer 1"><g id="Layer_2-2" data-name="Layer 2"><g id="Layer_1-2-2" data-name="Layer 1-2"><path class="cls-1" d="M38.09,283.87,381.22,183.16c7.67-1.7,15,3.65,13.94,10.36L365,322.11a12.17,12.17,0,0,1-5.43,8.19L171.4,419.47c-6.81,4.63-16.84,3.31-21.67-2.85L31.65,298.27C27.39,292.85,30.69,285.53,38.09,283.87Z"/><path class="cls-1" d="M190,410,80.22,469.13a11.13,11.13,0,0,1-15.07-4.52h0a11.13,11.13,0,0,1,4.52-15.07h0l109.74-59.12h0L190,410Z"/><path class="cls-1" d="M137.31,451.81l-17.62,10a43.49,43.49,0,1,1-22.46-40l17.25-10.19a61.52,61.52,0,1,0,22.83,40.18Z"/><path class="cls-1" d="M365.36,442.11l-66.29-70.4,16.54-8.52,47.48,50.15,2.13-74.1,18.36-8.52-3.08,105.66a8.77,8.77,0,0,1-15.14,5.75Z"/><path class="cls-1" d="M370.1,346.79h0a9.06,9.06,0,0,1,4.57-12l40.76-18.26a9.07,9.07,0,0,0,5.11-6.25l33.26-146a9,9,0,0,1,7.38-6.91l38.37-6.23a9.06,9.06,0,0,1,10.38,7.49h0a9,9,0,0,1-7.47,10.38h0l-27.36,4.44a7.51,7.51,0,0,0-6.09,5.75L436.13,323.11a9,9,0,0,1-5.11,6.25l-49,21.91A9,9,0,0,1,370.1,346.79Z"/><path class="cls-1" d="M371.31,72.41c0,1.93-15.09,119.2-168,139.92,19.5-11.53,61.9-43.95,56.45-43.52S211.39,198.65,197,208.59C206.9,184.06,258.11,72.41,371.31,72.41Z"/><path class="cls-1" d="M115,211.83c2.71,2.34,32.67,8.18,49,11.23-15.22,10-81.19,45.44-164-21,0,0,97.18-47.09,164.25,15.63C145.75,213.66,112.11,209.35,115,211.83Z"/><path class="cls-1" d="M182.21,207.55c1.29-15-40.72-123.69-42.68-114.06S174.6,209.7,174.6,209.7l.28.65C53.86,131.69,113,0,113,0c118.52,68,80.26,184.07,69.09,208.66C182.14,208.3,182.18,207.93,182.21,207.55Z"/></g></g></g></g></svg>