<svg xmlns="http://www.w3.org/2000/svg" viewBox="0 0 772.3 789.47"><defs><style>.cls-1{fill:#00e57a;}</style></defs><title>logo vg green</title><g id="Layer_2" data-name="Layer 2"><g id="Layer_1-2" data-name="Layer 1"><g id="Layer_2-2" data-name="Layer 2"><g id="Layer_1-2-2" data-name="Layer 1-2"><g id="Layer_2-2-2" data-name="Layer 2-2"><g id="Layer_1-2-2-2" data-name="Layer 1-2-2"><path class="cls-1" d="M57.67,429.82,577.22,277.33c11.61-2.57,22.71,5.53,21.11,15.69l-45.67,194.7a18.43,18.43,0,0,1-8.22,12.4l-284.92,135c-10.31,7-25.5,5-32.81-4.32L47.92,451.62C41.47,443.42,46.47,432.33,57.67,429.82Z"/><path class="cls-1" d="M287.69,620.8,121.46,710.33a16.85,16.85,0,0,1-22.82-6.84h0a16.85,16.85,0,0,1,6.84-22.82h0l166.16-89.52h0Z"/><path class="cls-1" d="M207.91,684.11l-26.68,15.14a65.85,65.85,0,1,1-34-60.57l26.12-15.43a93.15,93.15,0,1,0,34.57,60.84Z"/><path class="cls-1" d="M553.21,669.42,452.84,562.82l25-12.9,71.89,75.93L553,513.66l27.8-12.9-4.66,160a13.28,13.28,0,0,1-22.92,8.71Z"/><path class="cls-1" d="M560.38,525.09h0a13.72,13.72,0,0,1,6.86-18.15l.05,0L629,479.27a13.73,13.73,0,0,0,7.74-9.46l50.36-221.07a13.63,13.63,0,0,1,11.17-10.46l58.1-9.43a13.72,13.72,0,0,1,15.72,11.34h0a13.63,13.63,0,0,1-11.18,15.7l-.13,0h0l-41.43,6.72a11.37,11.37,0,0,0-9.22,8.71l-49.79,217.9a13.63,13.63,0,0,1-7.74,9.46l-74.19,33.17a13.63,13.63,0,0,1-18-6.77Z"/><path class="cls-1" d="M562.22,109.64c0,2.92-22.85,180.49-254.38,211.86C337.37,304,401.57,255,393.31,255.6s-73.24,45.18-95,60.23C313.28,278.69,390.82,109.64,562.22,109.64Z"/><path class="cls-1" d="M174.13,320.74c4.1,3.54,49.47,12.39,74.19,17-23,15.14-122.93,68.8-248.32-31.8,0,0,147.14-71.3,248.7,23.67C220.69,323.51,169.75,317,174.13,320.74Z"/><path class="cls-1" d="M275.89,314.26c2-22.71-61.66-187.28-64.62-172.7s53.1,176,53.1,176l.42,1C81.55,199.4,171.1,0,171.1,0,350.55,103,292.62,278.71,275.71,315.94Q275.82,315.12,275.89,314.26Z"/></g></g></g></g></g></g></svg>