<svg xmlns="http://www.w3.org/2000/svg" viewBox="0 0 418.96 428.29"><defs><style>.cls-1{fill:#007c26;}.cls-2{fill:#fff;}</style></defs><title>logo vg</title><g id="Layer_2" data-name="Layer 2"><g id="Layer_1-2" data-name="Layer 1"><path class="cls-1" d="M31.29,233.17l281.85-82.72c6.3-1.4,12.28,3,11.45,8.51L299.83,264.58a10,10,0,0,1-4.46,6.73L140.79,344.55c-5.59,3.8-13.83,2.72-17.8-2.34L26,245C22.5,240.55,25.21,234.53,31.29,233.17Z"/><path class="cls-1" d="M46.84,346H149.23a9.14,9.14,0,0,1,9.14,9.14v0a9.14,9.14,0,0,1-9.14,9.14H46.84a0,0,0,0,1,0,0V346a0,0,0,0,1,0,0Z" transform="translate(361.36 619.19) rotate(151.69)"/><path class="cls-1" d="M112.4,371.12l-14.47,8.19A35.69,35.69,0,1,1,69.1,342.69a35.36,35.36,0,0,1,10.38,3.77l14.17-8.37a50.53,50.53,0,1,0,18.75,33Z"/><path class="cls-1" d="M300.11,363.15l-54.45-57.83,13.59-7,39,41.19L300,278.64l15.08-7-2.53,86.79A7.2,7.2,0,0,1,300.11,363.15Z"/><path class="cls-1" d="M304,284.85h0a7.44,7.44,0,0,1,3.75-9.83l33.48-15a7.45,7.45,0,0,0,4.2-5.13L372.75,135a7.42,7.42,0,0,1,6.06-5.68l31.52-5.12a7.44,7.44,0,0,1,8.53,6.15h0a7.43,7.43,0,0,1-6.15,8.53l-22.47,3.65a6.17,6.17,0,0,0-5,4.72l-27,118.15a7.41,7.41,0,0,1-4.2,5.13l-40.25,18A7.43,7.43,0,0,1,304,284.85Z"/><path class="cls-1" d="M160.35,175.22S200.54,59.48,305,59.48C305,61.09,292.17,160.75,160.35,175.22Z"/><path class="cls-1" d="M0,166s82.3-39.88,137.44,15.27C136.6,182.1,77.21,227.91,0,166Z"/><path class="cls-1" d="M92.84,0S43,110.92,147.49,175.22C149.1,175.22,202.15,62.69,92.84,0Z"/><path class="cls-2" d="M143.42,172.25S113,84.7,114.61,76.79s36.12,81.39,35.06,93.69-3.42,8.34-3.42,8.34Z"/><path class="cls-2" d="M158,174s50-34.92,55.33-35.34-45.11,37.45-53.09,39-5.9-.68-5.9-.68Z"/><path class="cls-2" d="M143.33,184.79S97.54,176.65,94.46,174s44.5,4.12,49.63,7.6,2.81,3.54,2.81,3.54Z"/></g></g></svg>